<svg preserveAspectRatio="none" width="100%" height="100%" overflow="visible" style="display: block;" viewBox="0 0 34.5028 43.5" fill="none" xmlns="http://www.w3.org/2000/svg">
<path id="Vector" d="M1.50275 40.3125C1.50275 41.2445 2.25827 42 3.19025 42H27.1573C29.7743 42 30.7528 41.1782 30.7528 38.4V35.1485M1.50275 40.3125C1.50275 37.5166 3.76931 35.25 6.56525 35.25H29.4073C29.9161 35.25 30.363 35.2189 30.7528 35.1485M1.50275 40.3125V8.70044C1.50275 6.14419 1.34075 3.32469 3.9593 1.99047C4.9219 1.5 6.18296 1.5 8.70319 1.5H29.4032C32.1825 1.5 33.0028 2.4823 33.0028 5.10022V31.6502C33.0028 33.8882 32.3677 34.8565 30.7528 35.1485" stroke="var(--stroke-0, #646464)" stroke-width="3" stroke-linecap="round" stroke-linejoin="round"/>
</svg>
