<svg preserveAspectRatio="none" width="100%" height="100%" overflow="visible" style="display: block;" viewBox="0 0 32 32" fill="none" xmlns="http://www.w3.org/2000/svg">
<g id="linkedin">
<path id="Path 2520" d="M24.7177 24.3611H21.1217V18.8161C21.1217 17.4938 21.0977 15.7917 19.2514 15.7917C17.3785 15.7917 17.092 17.2323 17.092 18.7198V24.3607H13.496V12.9579H16.9481V14.5163H16.9964C17.3419 13.9346 17.8412 13.4562 18.441 13.1318C19.0408 12.8074 19.7187 12.6493 20.4025 12.6743C24.0472 12.6743 24.7192 15.0348 24.7192 18.1057L24.7177 24.3611ZM9.43852 11.3993C9.02579 11.3993 8.6223 11.2789 8.27909 11.0532C7.93588 10.8275 7.66837 10.5066 7.51036 10.1312C7.35234 9.75574 7.31093 9.34261 7.39138 8.94401C7.47183 8.54541 7.67051 8.17926 7.9623 7.89184C8.2541 7.60443 8.62589 7.40866 9.03068 7.32931C9.43546 7.24995 9.85504 7.29057 10.2364 7.44602C10.6177 7.60148 10.9437 7.86478 11.173 8.20264C11.4024 8.54051 11.5249 8.93775 11.5249 9.34414C11.525 9.61398 11.4711 9.88118 11.3662 10.1305C11.2614 10.3798 11.1077 10.6063 10.914 10.7972C10.7203 10.988 10.4902 11.1394 10.2371 11.2427C9.98391 11.346 9.71256 11.3992 9.43852 11.3993ZM11.2365 24.3611H7.63679V12.9579H11.2365V24.3611ZM26.5104 4.00163H5.82982C5.36042 3.99641 4.90811 4.1749 4.5723 4.49788C4.2365 4.82085 4.04467 5.26189 4.03894 5.72407V26.1717C4.04447 26.6341 4.23619 27.0754 4.57198 27.3987C4.90778 27.722 5.36019 27.9009 5.82982 27.896H26.5104C26.981 27.9018 27.4347 27.7234 27.7718 27.4001C28.1089 27.0768 28.3019 26.635 28.3084 26.1717V5.72259C28.3017 5.2595 28.1086 4.81796 27.7714 4.49499C27.4343 4.17203 26.9808 3.99404 26.5104 4.00015" fill="#646464"/>
</g>
</svg>
