<svg preserveAspectRatio="none" width="100%" height="100%" overflow="visible" style="display: block;" viewBox="0 0 24.7892 19.4773" fill="none" xmlns="http://www.w3.org/2000/svg">
<path id="Vector" d="M23.9039 0H0.88533C0.650526 0 0.425339 0.0932757 0.259307 0.259307C0.0932755 0.425339 0 0.650526 0 0.88533V18.5919C0 18.8267 0.0932755 19.0519 0.259307 19.218C0.425339 19.384 0.650526 19.4773 0.88533 19.4773H23.9039C24.1387 19.4773 24.3639 19.384 24.5299 19.218C24.696 19.0519 24.7892 18.8267 24.7892 18.5919V0.88533C24.7892 0.650526 24.696 0.425339 24.5299 0.259307C24.3639 0.0932757 24.1387 0 23.9039 0ZM12.938 11.3228C12.7826 11.4436 12.5914 11.5092 12.3946 11.5092C12.1978 11.5092 12.0066 11.4436 11.8512 11.3228L3.18442 4.58214L4.27116 3.18442L12.3946 9.50236L20.5181 3.18442L21.6048 4.58214L12.938 11.3228Z" fill="#646464"/>
</svg>
